<?xml version="1.0" standalone="no"?>
<!DOCTYPE svg PUBLIC "-//W3C//DTD SVG 20010904//EN"
 "http://www.w3.org/TR/2001/REC-SVG-20010904/DTD/svg10.dtd">
<svg version="1.0" xmlns="http://www.w3.org/2000/svg"
 width="150.000000pt" height="26.000000pt" viewBox="0 0 150.000000 26.000000"
 preserveAspectRatio="xMidYMid meet">

<g transform="translate(0.000000,26.000000) scale(0.100000,-0.100000)"
fill="#000000" stroke="none">
<path d="M523 188 c-10 -14 -33 -88 -33 -107 0 -6 9 -11 19 -11 15 0 23 13 35
54 9 30 16 59 16 65 0 15 -25 14 -37 -1z"/>
<path d="M1247 193 c-3 -5 -10 -27 -17 -51 -6 -24 -14 -50 -17 -58 -3 -8 0
-14 6 -14 6 0 11 6 11 14 0 26 23 30 41 8 23 -30 31 -28 17 4 -11 23 -9 28 12
45 34 26 15 24 -28 -3 -31 -19 -35 -20 -29 -4 18 47 20 86 4 59z"/>
<path d="M830 175 c0 -8 -8 -15 -17 -15 -13 0 -14 -3 -6 -8 10 -6 10 -17 3
-42 -6 -19 -10 -36 -10 -37 0 -2 10 -3 23 -3 15 0 18 3 9 9 -17 10 -6 58 17
71 11 7 12 9 2 10 -7 0 -11 6 -7 15 3 8 1 15 -4 15 -6 0 -10 -7 -10 -15z"/>
<path d="M255 163 c-57 -14 -75 -76 -27 -94 29 -11 83 -1 84 16 1 6 8 15 16
21 17 13 8 54 -13 54 -7 0 -19 2 -27 4 -7 2 -22 1 -33 -1z m38 -30 c-7 -2 -21
-2 -30 0 -10 3 -4 5 12 5 17 0 24 -2 18 -5z m-10 -40 c-7 -2 -21 -2 -30 0 -10
3 -4 5 12 5 17 0 24 -2 18 -5z"/>
<path d="M392 158 c-48 -13 -40 -31 11 -24 40 5 40 4 -8 -8 -38 -9 -51 -17
-53 -33 -4 -26 11 -32 75 -26 50 5 53 7 63 41 5 19 7 38 5 42 -8 12 -59 17
-93 8z m38 -58 c0 -5 -9 -10 -21 -10 -11 0 -17 5 -14 10 3 6 13 10 21 10 8 0
14 -4 14 -10z"/>
<path d="M97 114 c-14 -44 -14 -44 9 -44 17 0 25 7 30 25 4 18 15 28 35 32 47
9 36 31 -15 31 -43 0 -44 0 -59 -44z"/>
<path d="M585 151 c-10 -18 -22 -81 -15 -81 4 0 11 12 15 27 9 39 23 53 51 53
27 0 28 -2 15 -48 -5 -17 -6 -32 -1 -32 9 0 20 35 20 68 0 20 -4 23 -41 20
-22 -1 -42 -4 -44 -7z"/>
<path d="M701 141 c-26 -26 -27 -57 -2 -71 22 -11 64 1 76 22 6 10 5 11 -6 0
-19 -17 -69 -16 -69 3 0 11 12 15 46 15 41 0 45 2 42 23 -4 31 -59 36 -87 8z
m77 -8 c2 -9 -9 -13 -38 -13 -37 0 -41 2 -30 16 15 17 61 15 68 -3z"/>
<path d="M878 115 c2 -25 8 -45 12 -45 5 0 20 15 34 33 l26 32 0 -32 c0 -23 5
-33 16 -33 10 0 14 6 10 18 -3 9 -8 29 -12 45 -8 35 -15 34 -37 -3 -10 -16
-22 -30 -28 -30 -5 0 -9 14 -9 30 0 17 -3 30 -8 30 -4 0 -6 -20 -4 -45z"/>
<path d="M1000 130 c-29 -41 -20 -49 9 -9 13 17 21 33 18 35 -3 3 -15 -9 -27
-26z"/>
<path d="M1041 134 c-12 -15 -21 -30 -21 -35 0 -10 29 -39 40 -39 25 0 62 23
72 45 24 54 -52 78 -91 29z m76 0 c10 -26 -11 -49 -43 -49 -34 0 -43 24 -19
49 21 21 54 21 62 0z"/>
<path d="M1150 118 c-15 -52 -6 -61 14 -14 8 20 25 40 38 45 21 8 20 9 -8 9
-28 -1 -33 -6 -44 -40z"/>
<path d="M1341 151 c-19 -12 -7 -39 20 -43 12 -2 25 -9 27 -17 4 -11 -4 -13
-37 -8 -35 4 -40 3 -30 -9 16 -19 42 -18 70 5 27 22 19 37 -21 43 -14 1 -25 8
-25 13 0 16 47 18 56 3 7 -10 9 -9 9 5 0 19 -43 24 -69 8z"/>
</g>
</svg>
