<?xml version="1.0" standalone="no"?>
<!DOCTYPE svg PUBLIC "-//W3C//DTD SVG 20010904//EN"
 "http://www.w3.org/TR/2001/REC-SVG-20010904/DTD/svg10.dtd">
<svg version="1.0" xmlns="http://www.w3.org/2000/svg"
 width="166.000000pt" height="18.000000pt" viewBox="0 0 166.000000 18.000000"
 preserveAspectRatio="xMidYMid meet">

<g transform="translate(0.000000,18.000000) scale(0.100000,-0.100000)"
fill="#000000" stroke="none">
<path d="M0 90 l0 -90 830 0 830 0 0 90 0 91 -106 -3 -107 -3 -13 -45 c-7 -24
-11 -46 -9 -49 3 -2 23 8 45 23 22 14 43 26 47 26 5 0 -7 -10 -25 -21 l-32
-21 21 -34 c11 -19 17 -34 12 -34 -4 0 -16 14 -25 31 -15 26 -20 28 -38 19
-11 -6 -20 -17 -20 -25 0 -7 -4 -16 -10 -20 -6 -4 -6 5 0 22 5 15 16 52 24 81
l15 52 -720 0 -719 0 0 -90z m590 74 c0 -4 -9 -38 -20 -75 -17 -55 -25 -69
-40 -69 -24 0 -24 5 -3 86 15 55 20 64 40 64 13 0 23 -3 23 -6z m353 -13 c-3
-13 1 -21 14 -24 16 -4 15 -5 -3 -6 -15 -1 -24 -12 -33 -41 -7 -22 -9 -45 -6
-50 3 -6 1 -10 -4 -10 -14 0 -14 19 0 60 9 26 9 34 -2 41 -11 7 -11 9 2 9 9 0
19 9 22 20 3 11 7 20 10 20 3 0 3 -9 0 -19z m-635 -33 c6 -6 12 -19 12 -29 0
-15 -10 -19 -62 -21 -38 -2 -61 -7 -58 -13 3 -5 27 -9 54 -7 44 3 48 1 36 -13
-10 -12 -28 -15 -74 -13 -58 3 -61 4 -64 30 -5 39 14 66 51 77 35 10 84 5 105
-11z m161 16 c34 -7 39 -27 20 -81 l-10 -31 -76 2 c-43 0 -78 6 -80 11 -8 24
23 46 75 52 32 3 51 10 49 17 -4 11 -11 11 -72 -1 -27 -5 -28 -4 -17 10 8 9
26 18 40 20 15 2 30 5 33 6 4 0 21 -2 38 -5z m-389 -14 c0 -7 6 -7 19 0 27 14
51 13 51 -3 0 -7 -15 -17 -32 -22 -22 -7 -38 -20 -48 -42 -10 -22 -22 -33 -37
-33 -13 0 -23 1 -23 3 0 2 7 27 15 55 12 40 20 52 35 52 11 0 20 -5 20 -10z
m555 -7 c-6 -30 -34 -99 -34 -87 -1 6 4 26 10 45 6 19 12 40 15 47 5 19 13 14
9 -5z m91 2 c3 -8 -1 -34 -10 -57 -9 -24 -14 -32 -11 -18 3 14 8 37 11 52 5
20 2 27 -12 31 -17 4 -17 5 -1 6 10 0 20 -6 23 -14z m57 -10 l-28 -24 58 -1
c59 0 68 7 41 34 -8 9 -11 16 -6 16 16 0 35 -29 28 -45 -4 -11 -21 -15 -61
-15 -48 0 -55 -3 -55 -19 0 -11 5 -22 10 -24 6 -3 5 -4 -2 -3 -23 5 -21 56 3
82 12 13 26 24 31 24 5 0 -4 -11 -19 -25z m215 -26 l8 -44 33 49 c37 53 50 49
51 -14 l1 -35 19 23 c11 13 29 36 40 50 29 37 13 7 -23 -45 -17 -24 -34 -43
-39 -43 -4 0 -8 18 -8 39 0 22 -4 42 -8 45 -4 2 -20 -15 -36 -40 -31 -49 -46
-56 -46 -20 0 13 -3 39 -6 57 -4 19 -4 31 0 28 4 -3 10 -26 14 -50z m222 38
c-13 -7 -29 -25 -35 -41 -8 -23 -6 -30 10 -43 20 -15 20 -15 0 -11 -44 7 -13
108 33 108 12 0 9 -4 -8 -13z m78 -21 c3 -28 -29 -76 -51 -76 -5 0 2 9 17 21
30 24 34 63 9 79 -16 10 -16 10 2 8 14 -2 21 -12 23 -32z m42 -18 c-7 -24 -17
-47 -22 -53 -5 -5 -2 13 7 40 8 28 15 54 15 59 0 5 3 6 7 3 3 -4 0 -26 -7 -49z
m70 48 c0 -2 -11 -6 -25 -8 -13 -3 -22 -1 -19 3 5 9 44 13 44 5z m154 -11
c-16 -13 -17 -16 -4 -25 8 -5 25 -10 38 -10 12 0 25 -7 28 -15 7 -17 -12 -45
-29 -45 -6 0 -3 6 8 13 21 16 13 37 -15 37 -28 0 -50 11 -50 24 0 15 20 36 34
36 5 0 1 -7 -10 -15z m73 -5 c3 -10 2 -11 -4 -4 -4 6 -15 14 -23 17 -11 5 -9
6 4 4 11 -1 21 -9 23 -17z m-92 -89 c-6 -5 -25 10 -25 20 0 5 6 4 14 -3 8 -7
12 -15 11 -17z"/>
<path d="M205 100 c-4 -6 8 -10 29 -10 20 0 36 5 36 10 0 6 -13 10 -29 10 -17
0 -33 -4 -36 -10z"/>
<path d="M387 63 c-15 -14 -6 -24 20 -21 34 4 43 28 11 28 -14 0 -28 -3 -31
-7z"/>
</g>
</svg>
