<?xml version="1.0" standalone="no"?>
<!DOCTYPE svg PUBLIC "-//W3C//DTD SVG 20010904//EN"
 "http://www.w3.org/TR/2001/REC-SVG-20010904/DTD/svg10.dtd">
<svg version="1.0" xmlns="http://www.w3.org/2000/svg"
 width="200.000000pt" height="200.000000pt" viewBox="0 0 200.000000 200.000000"
 preserveAspectRatio="xMidYMid meet">

<g transform="translate(0.000000,200.000000) scale(0.100000,-0.100000)"
fill="#000000" stroke="none">
<path d="M943 1710 c-17 -10 -37 -28 -42 -39 -7 -13 -11 -138 -11 -356 0 -296
2 -340 17 -365 35 -59 122 -69 172 -19 l31 31 0 269 0 269 225 0 c251 0 282 6
309 59 20 38 20 74 1 111 -30 58 -45 60 -372 60 -277 0 -300 -1 -330 -20z"/>
<path d="M282 1324 c-38 -20 -62 -60 -62 -105 0 -38 109 -264 203 -420 184
-308 344 -472 504 -515 119 -32 229 7 359 129 140 131 306 380 439 659 61 130
69 178 34 221 -30 39 -85 53 -131 34 -33 -14 -44 -30 -114 -169 -170 -340
-316 -547 -443 -629 -57 -37 -86 -36 -143 1 -125 83 -293 323 -445 635 -36 75
-76 143 -87 151 -36 23 -78 26 -114 8z"/>
</g>
</svg>
